# xmcd
#
# Track frame offsets: 
#        300
#        23246
#        52568
#        71411
#        97201
#        118764
#        144291
#        165798
#        188419
#        219837
#
# Disc length: 3390 seconds
#
# Revision: 1
# Processed by: cddbd v1.5.2PL0 Copyright (c) Steve Scherf et al.
# Submitted via: ExactAudioCopy v1.0b1
#
DISCID=770d3a0a
DTITLE=Jimmy Dawkins - Tell Me Baby
DYEAR=2004
DGENRE=Blues
TTITLE0=Tell Me Baby
TTITLE1=Falling Tears
TTITLE2=Kotten Field Jump
TTITLE3=Mean O' Blues
TTITLE4=Gitar King
TTITLE5=Mid Nite Boogie
TTITLE6=Tired Of Krying
TTITLE7=Bring It Back
TTITLE8=Rumping 'N' Stomping
TTITLE9=Hard Life Blues
EXTD=YEAR: 2004
EXTT0=
EXTT1=
EXTT2=
EXTT3=
EXTT4=
EXTT5=
EXTT6=
EXTT7=
EXTT8=
EXTT9=
PLAYORDER=
